<?xml version="1.0" encoding="utf-8"?>
<!-- Generator: Adobe Illustrator 17.0.0, SVG Export Plug-In . SVG Version: 6.00 Build 0)  -->
<!DOCTYPE svg PUBLIC "-//W3C//DTD SVG 1.1//EN" "http://www.w3.org/Graphics/SVG/1.1/DTD/svg11.dtd">
<svg version="1.1" id="Layer_1" xmlns="http://www.w3.org/2000/svg" xmlns:xlink="http://www.w3.org/1999/xlink" x="0px" y="0px"
	 width="960px" height="300px" viewBox="0 0 960 300" enable-background="new 0 0 960 300" xml:space="preserve">
<g>
	<path fill="#2DBA66" d="M305.998,173.708v17.611l-63.668-35.794v-15.663l63.668-35.716v17.523l-45.377,26.02L305.998,173.708z"/>
	<path fill="#2DBA66" d="M316.07,217.931l42.078-124.992h12.442l-42.148,124.992H316.07z"/>
	<path fill="#2DBA66" d="M382.222,93.291h17.271v37.321c3.398-3.239,6.819-5.668,10.261-7.288s6.925-2.43,10.452-2.43
		c6.883,0,12.683,2.63,17.399,7.887c4.036,4.554,6.054,11.244,6.054,20.069v50.631h-17.144v-33.59
		c0-8.872-0.382-14.881-1.147-18.027c-0.765-3.145-2.071-5.493-3.919-7.042c-1.848-1.549-4.133-2.324-6.851-2.324
		c-3.527,0-6.555,1.292-9.082,3.873c-2.528,2.583-4.281,6.104-5.258,10.563c-0.51,2.301-0.765,7.56-0.765,15.774v30.772h-17.271
		V93.291z"/>
	<path fill="#2DBA66" d="M462.588,94.629h17.398v28.237h10.325v16.548h-10.325v60.067h-17.398v-60.067h-8.923v-16.548h8.923V94.629z
		"/>
	<path fill="#2DBA66" d="M499.489,122.866h17.398v8.803c2.976-3.615,6.281-6.313,9.917-8.098c3.635-1.784,7.601-2.676,11.896-2.676
		c4.336,0,8.247,1.174,11.734,3.521c3.486,2.348,6.293,5.774,8.419,10.281c2.763-4.507,6.154-7.933,10.172-10.281
		c4.019-2.347,8.409-3.521,13.171-3.521c4.932,0,9.268,1.268,13.01,3.803s6.432,5.845,8.068,9.929
		c1.638,4.084,2.456,10.728,2.456,19.928v44.927h-17.526V160.61c0-8.685-0.979-14.564-2.932-17.64
		c-1.955-3.074-4.887-4.612-8.795-4.612c-2.975,0-5.641,0.94-7.999,2.817c-2.357,1.878-4.11,4.472-5.258,7.781
		c-1.146,3.309-1.721,8.626-1.721,15.95v34.575h-17.526v-37.11c0-6.854-0.458-11.818-1.373-14.894
		c-0.916-3.074-2.289-5.363-4.121-6.866c-1.831-1.502-4.046-2.253-6.644-2.253c-2.896,0-5.525,0.951-7.89,2.852
		s-4.131,4.566-5.302,7.992c-1.171,3.427-1.757,8.827-1.757,16.197v34.082h-17.398V122.866z"/>
	<path fill="#2DBA66" d="M620.389,93.291h17.399v106.19h-17.399V93.291z"/>
	<path fill="#2DBA66" d="M652.127,121.669v-17.55l63.668,35.745v15.63l-63.668,35.823v-17.61l45.441-26.019L652.127,121.669z"/>
</g>
</svg>
