<?xml version="1.0" encoding="utf-8"?>
<!-- Generator: Adobe Illustrator 17.0.0, SVG Export Plug-In . SVG Version: 6.00 Build 0)  -->
<!DOCTYPE svg PUBLIC "-//W3C//DTD SVG 1.1//EN" "http://www.w3.org/Graphics/SVG/1.1/DTD/svg11.dtd">
<svg version="1.1" xmlns="http://www.w3.org/2000/svg" xmlns:xlink="http://www.w3.org/1999/xlink" x="0px" y="0px" width="1280px"
	 height="20px" viewBox="0 0 1280 20" enable-background="new 0 0 1280 20" xml:space="preserve">
<g id="Layer_2">
</g>
<g id="Layer_1">
	<polygon fill="#FFFFFF" points="-0.321,0 8.662,15.558 17.644,0 	"/>
	<polygon fill="#FFFFFF" points="17.679,0 26.662,15.558 35.644,0 	"/>
	<polygon fill="#FFFFFF" points="35.679,0 44.662,15.558 53.644,0 	"/>
	<polygon fill="#FFFFFF" points="53.679,0 62.662,15.558 71.644,0 	"/>
	<polygon fill="#FFFFFF" points="71.679,0 80.662,15.558 89.644,0 	"/>
	<polygon fill="#FFFFFF" points="89.679,0 98.662,15.558 107.644,0 	"/>
	<polygon fill="#FFFFFF" points="107.679,0 116.662,15.558 125.644,0 	"/>
	<polygon fill="#FFFFFF" points="125.679,0 134.662,15.558 143.644,0 	"/>
	<polygon fill="#FFFFFF" points="143.679,0 152.662,15.558 161.644,0 	"/>
	<polygon fill="#FFFFFF" points="161.679,0 170.662,15.558 179.644,0 	"/>
	<polygon fill="#FFFFFF" points="179.679,0 188.662,15.558 197.644,0 	"/>
	<polygon fill="#FFFFFF" points="197.679,0 206.662,15.558 215.644,0 	"/>
	<polygon fill="#FFFFFF" points="215.679,0 224.662,15.558 233.644,0 	"/>
	<polygon fill="#FFFFFF" points="233.679,0 242.662,15.558 251.644,0 	"/>
	<polygon fill="#FFFFFF" points="251.679,0 260.662,15.558 269.644,0 	"/>
	<polygon fill="#FFFFFF" points="269.68,0 278.662,15.558 287.644,0 	"/>
	<polygon fill="#FFFFFF" points="287.68,0 296.662,15.558 305.644,0 	"/>
	<polygon fill="#FFFFFF" points="305.68,0 314.662,15.558 323.644,0 	"/>
	<polygon fill="#FFFFFF" points="323.68,0 332.662,15.558 341.644,0 	"/>
	<polygon fill="#FFFFFF" points="341.68,0 350.662,15.558 359.644,0 	"/>
	<polygon fill="#FFFFFF" points="359.68,0 368.662,15.558 377.644,0 	"/>
	<polygon fill="#FFFFFF" points="377.68,0 386.662,15.558 395.644,0 	"/>
	<polygon fill="#FFFFFF" points="395.68,0 404.662,15.558 413.644,0 	"/>
	<polygon fill="#FFFFFF" points="413.68,0 422.662,15.558 431.644,0 	"/>
	<polygon fill="#FFFFFF" points="431.68,0 440.662,15.558 449.644,0 	"/>
	<polygon fill="#FFFFFF" points="449.68,0 458.662,15.558 467.644,0 	"/>
	<polygon fill="#FFFFFF" points="467.68,0 476.662,15.558 485.644,0 	"/>
	<polygon fill="#FFFFFF" points="485.68,0 494.662,15.558 503.644,0 	"/>
	<polygon fill="#FFFFFF" points="503.68,0 512.662,15.558 521.644,0 	"/>
	<polygon fill="#FFFFFF" points="521.68,0 530.662,15.558 539.644,0 	"/>
	<polygon fill="#FFFFFF" points="539.68,0 548.662,15.558 557.644,0 	"/>
	<polygon fill="#FFFFFF" points="557.68,0 566.662,15.558 575.644,0 	"/>
	<polygon fill="#FFFFFF" points="576.68,0 585.662,15.558 594.644,0 	"/>
	<polygon fill="#FFFFFF" points="594.68,0 603.662,15.558 612.644,0 	"/>
	<polygon fill="#FFFFFF" points="612.68,0 621.662,15.558 630.644,0 	"/>
	<polygon fill="#FFFFFF" points="630.68,0 639.662,15.558 648.644,0 	"/>
	<polygon fill="#FFFFFF" points="648.68,0 657.662,15.558 666.644,0 	"/>
	<polygon fill="#FFFFFF" points="666.68,0 675.662,15.558 684.644,0 	"/>
	<polygon fill="#FFFFFF" points="684.68,0 693.662,15.558 702.644,0 	"/>
	<polygon fill="#FFFFFF" points="702.68,0 711.662,15.558 720.644,0 	"/>
	<polygon fill="#FFFFFF" points="720.68,0 729.662,15.558 738.644,0 	"/>
	<polygon fill="#FFFFFF" points="738.68,0 747.662,15.558 756.644,0 	"/>
	<polygon fill="#FFFFFF" points="756.68,0 765.662,15.558 774.644,0 	"/>
	<polygon fill="#FFFFFF" points="774.68,0 783.662,15.558 792.644,0 	"/>
	<polygon fill="#FFFFFF" points="792.68,0 801.662,15.558 810.644,0 	"/>
	<polygon fill="#FFFFFF" points="810.68,0 819.662,15.558 828.644,0 	"/>
	<polygon fill="#FFFFFF" points="828.68,0 837.662,15.558 846.644,0 	"/>
	<polygon fill="#FFFFFF" points="846.68,0 855.662,15.558 864.644,0 	"/>
	<polygon fill="#FFFFFF" points="864.68,0 873.662,15.558 882.644,0 	"/>
	<polygon fill="#FFFFFF" points="882.68,0 891.662,15.558 900.644,0 	"/>
	<polygon fill="#FFFFFF" points="900.68,0 909.662,15.558 918.644,0 	"/>
	<polygon fill="#FFFFFF" points="918.68,0 927.662,15.558 936.644,0 	"/>
	<polygon fill="#FFFFFF" points="936.68,0 945.662,15.558 954.644,0 	"/>
	<polygon fill="#FFFFFF" points="954.68,0 963.662,15.558 972.644,0 	"/>
	<polygon fill="#FFFFFF" points="972.68,0 981.662,15.558 990.644,0 	"/>
	<polygon fill="#FFFFFF" points="990.68,0 999.662,15.558 1008.644,0 	"/>
	<polygon fill="#FFFFFF" points="1008.68,0 1017.662,15.558 1026.645,0 	"/>
	<polygon fill="#FFFFFF" points="1026.679,0 1035.662,15.558 1044.645,0 	"/>
	<polygon fill="#FFFFFF" points="1044.679,0 1053.662,15.558 1062.645,0 	"/>
	<polygon fill="#FFFFFF" points="1062.679,0 1071.662,15.558 1080.645,0 	"/>
	<polygon fill="#FFFFFF" points="1080.679,0 1089.662,15.558 1098.645,0 	"/>
	<polygon fill="#FFFFFF" points="1098.679,0 1107.662,15.558 1116.645,0 	"/>
	<polygon fill="#FFFFFF" points="1116.679,0 1125.662,15.558 1134.645,0 	"/>
	<polygon fill="#FFFFFF" points="1134.679,0 1143.662,15.558 1152.645,0 	"/>
	<polygon fill="#FFFFFF" points="1152.679,0 1161.662,15.558 1170.645,0 	"/>
	<polygon fill="#FFFFFF" points="1170.679,0 1179.662,15.558 1188.645,0 	"/>
	<polygon fill="#FFFFFF" points="1188.679,0 1197.662,15.558 1206.645,0 	"/>
	<polygon fill="#FFFFFF" points="1206.679,0 1215.662,15.558 1224.645,0 	"/>
	<polygon fill="#FFFFFF" points="1224.679,0 1233.662,15.558 1242.645,0 	"/>
	<polygon fill="#FFFFFF" points="1242.679,0 1251.662,15.558 1260.645,0 	"/>
	<polygon fill="#FFFFFF" points="1260.679,0 1269.662,15.558 1278.645,0 	"/>
</g>
</svg>
