<?xml version="1.0" encoding="utf-8"?>
<!-- Generator: Adobe Illustrator 17.0.0, SVG Export Plug-In . SVG Version: 6.00 Build 0)  -->
<!DOCTYPE svg PUBLIC "-//W3C//DTD SVG 1.1//EN" "http://www.w3.org/Graphics/SVG/1.1/DTD/svg11.dtd">
<svg version="1.1" id="Layer_1" xmlns="http://www.w3.org/2000/svg" xmlns:xlink="http://www.w3.org/1999/xlink" x="0px" y="0px"
	 width="1280px" height="50px" viewBox="0 0 1280 50" enable-background="new 0 0 1280 50" xml:space="preserve">
<polygon fill="#FFFFFF" points="0.679,15.558 9.662,0 18.644,15.558 "/>
<polygon fill="#FFFFFF" points="18.679,15.558 27.662,0 36.644,15.558 "/>
<polygon fill="#FFFFFF" points="36.679,15.558 45.662,0 54.644,15.558 "/>
<polygon fill="#FFFFFF" points="54.679,15.558 63.662,0 72.644,15.558 "/>
<polygon fill="#FFFFFF" points="72.679,15.558 81.662,0 90.644,15.558 "/>
<polygon fill="#FFFFFF" points="90.679,15.558 99.662,0 108.644,15.558 "/>
<polygon fill="#FFFFFF" points="108.679,15.558 117.662,0 126.644,15.558 "/>
<polygon fill="#FFFFFF" points="126.679,15.558 135.662,0 144.644,15.558 "/>
<polygon fill="#FFFFFF" points="144.679,15.558 153.662,0 162.644,15.558 "/>
<polygon fill="#FFFFFF" points="162.679,15.558 171.662,0 180.644,15.558 "/>
<polygon fill="#FFFFFF" points="180.679,15.558 189.662,0 198.644,15.558 "/>
<polygon fill="#FFFFFF" points="198.679,15.558 207.662,0 216.644,15.558 "/>
<polygon fill="#FFFFFF" points="216.679,15.558 225.662,0 234.644,15.558 "/>
<polygon fill="#FFFFFF" points="234.679,15.558 243.662,0 252.644,15.558 "/>
<polygon fill="#FFFFFF" points="252.679,15.558 261.662,0 270.644,15.558 "/>
<polygon fill="#FFFFFF" points="270.68,15.558 279.662,0 288.644,15.558 "/>
<polygon fill="#FFFFFF" points="288.68,15.558 297.662,0 306.644,15.558 "/>
<polygon fill="#FFFFFF" points="306.68,15.558 315.662,0 324.644,15.558 "/>
<polygon fill="#FFFFFF" points="324.68,15.558 333.662,0 342.644,15.558 "/>
<polygon fill="#FFFFFF" points="342.68,15.558 351.662,0 360.644,15.558 "/>
<polygon fill="#FFFFFF" points="360.68,15.558 369.662,0 378.644,15.558 "/>
<polygon fill="#FFFFFF" points="378.68,15.558 387.662,0 396.644,15.558 "/>
<polygon fill="#FFFFFF" points="396.68,15.558 405.662,0 414.644,15.558 "/>
<polygon fill="#FFFFFF" points="414.68,15.558 423.662,0 432.644,15.558 "/>
<polygon fill="#FFFFFF" points="432.68,15.558 441.662,0 450.644,15.558 "/>
<polygon fill="#FFFFFF" points="450.68,15.558 459.662,0 468.644,15.558 "/>
<polygon fill="#FFFFFF" points="468.68,15.558 477.662,0 486.644,15.558 "/>
<polygon fill="#FFFFFF" points="486.68,15.558 495.662,0 504.644,15.558 "/>
<polygon fill="#FFFFFF" points="504.68,15.558 513.662,0 522.644,15.558 "/>
<polygon fill="#FFFFFF" points="522.68,15.558 531.662,0 540.644,15.558 "/>
<polygon fill="#FFFFFF" points="540.68,15.558 549.662,0 558.644,15.558 "/>
<polygon fill="#FFFFFF" points="558.68,15.558 567.662,0 576.644,15.558 "/>
<polygon fill="#FFFFFF" points="577.68,15.558 586.662,0 595.644,15.558 "/>
<polygon fill="#FFFFFF" points="595.68,15.558 604.662,0 613.644,15.558 "/>
<polygon fill="#FFFFFF" points="613.68,15.558 622.662,0 631.644,15.558 "/>
<polygon fill="#FFFFFF" points="631.68,15.558 640.662,0 649.644,15.558 "/>
<polygon fill="#FFFFFF" points="649.68,15.558 658.662,0 667.644,15.558 "/>
<polygon fill="#FFFFFF" points="667.68,15.558 676.662,0 685.644,15.558 "/>
<polygon fill="#FFFFFF" points="685.68,15.558 694.662,0 703.644,15.558 "/>
<polygon fill="#FFFFFF" points="703.68,15.558 712.662,0 721.644,15.558 "/>
<polygon fill="#FFFFFF" points="721.68,15.558 730.662,0 739.644,15.558 "/>
<polygon fill="#FFFFFF" points="739.68,15.558 748.662,0 757.644,15.558 "/>
<polygon fill="#FFFFFF" points="757.68,15.558 766.662,0 775.644,15.558 "/>
<polygon fill="#FFFFFF" points="775.68,15.558 784.662,0 793.644,15.558 "/>
<polygon fill="#FFFFFF" points="793.68,15.558 802.662,0 811.644,15.558 "/>
<polygon fill="#FFFFFF" points="811.68,15.558 820.662,0 829.644,15.558 "/>
<polygon fill="#FFFFFF" points="829.68,15.558 838.662,0 847.644,15.558 "/>
<polygon fill="#FFFFFF" points="847.68,15.558 856.662,0 865.644,15.558 "/>
<polygon fill="#FFFFFF" points="865.68,15.558 874.662,0 883.644,15.558 "/>
<polygon fill="#FFFFFF" points="883.68,15.558 892.662,0 901.644,15.558 "/>
<polygon fill="#FFFFFF" points="901.68,15.558 910.662,0 919.644,15.558 "/>
<polygon fill="#FFFFFF" points="919.68,15.558 928.662,0 937.644,15.558 "/>
<polygon fill="#FFFFFF" points="937.68,15.558 946.662,0 955.644,15.558 "/>
<polygon fill="#FFFFFF" points="955.68,15.558 964.662,0 973.644,15.558 "/>
<polygon fill="#FFFFFF" points="973.68,15.558 982.662,0 991.644,15.558 "/>
<polygon fill="#FFFFFF" points="991.68,15.558 1000.662,0 1009.644,15.558 "/>
<polygon fill="#FFFFFF" points="1009.68,15.558 1018.662,0 1027.645,15.558 "/>
<polygon fill="#FFFFFF" points="1027.679,15.558 1036.662,0 1045.645,15.558 "/>
<polygon fill="#FFFFFF" points="1045.679,15.558 1054.662,0 1063.645,15.558 "/>
<polygon fill="#FFFFFF" points="1063.679,15.558 1072.662,0 1081.645,15.558 "/>
<polygon fill="#FFFFFF" points="1081.679,15.558 1090.662,0 1099.645,15.558 "/>
<polygon fill="#FFFFFF" points="1099.679,15.558 1108.662,0 1117.645,15.558 "/>
<polygon fill="#FFFFFF" points="1117.679,15.558 1126.662,0 1135.645,15.558 "/>
<polygon fill="#FFFFFF" points="1135.679,15.558 1144.662,0 1153.645,15.558 "/>
<polygon fill="#FFFFFF" points="1153.679,15.558 1162.662,0 1171.645,15.558 "/>
<polygon fill="#FFFFFF" points="1171.679,15.558 1180.662,0 1189.645,15.558 "/>
<polygon fill="#FFFFFF" points="1189.679,15.558 1198.662,0 1207.645,15.558 "/>
<polygon fill="#FFFFFF" points="1207.679,15.558 1216.662,0 1225.645,15.558 "/>
<polygon fill="#FFFFFF" points="1225.679,15.558 1234.662,0 1243.645,15.558 "/>
<polygon fill="#FFFFFF" points="1243.679,15.558 1252.662,0 1261.645,15.558 "/>
<polygon fill="#FFFFFF" points="1261.679,15.558 1270.662,0 1279.645,15.558 "/>
<rect y="15" fill="#FFFFFF" width="1280" height="33"/>
</svg>
